#!OML:ASF I:\Actors\actors\Patient Classification 1\Patient 1\Session 1\Subject1.ASF
:FULLY-SPECIFIED
:DEGREES
488
root 0.152924 17.5894 8.22986 12.3284 14.7714 -6.882
lowerback 4.797 4.66367 4.52727
upperback -10.3005 7.10302 0.990313
thorax -13.5317 3.02559 -2.56412
lowerneck -10.9583 -12.2559 -6.94296
upperneck 6.86303 -16.1931 7.5498
head 5.00325 -7.7194 2.05763
rclavicle -1.26976e-013 -1.59183e-014
rhumerus 45.3893 -8.37752 -64.7453
rradius 44.1767
rwrist 39.0198
rhand -25.968 -48.1851
rfingers 7.12502
rthumb 0.576641 -78.164
lclavicle -1.26976e-013 -1.59183e-014
lhumerus -44.1809 -17.0341 96.3739
lradius 62.6232
lwrist 9.88031
lhand -14.7901 -12.0214
lfingers 7.12502
lthumb 11.3672 17.6505
rfemur -0.623445 31.1719 22.1308
rtibia -2.16286
rfoot -29.4369 -43.6228
rtoes 20.9211
lfemur -5.29142 -50.5232 -7.96083
ltibia -5.04057
lfoot -7.41775 48.4869
ltoes 0.453548
489
root 0.151248 17.5895 8.23697 12.2403 14.8049 -6.91472
lowerback 4.71211 4.68643 4.5152
upperback -10.2842 7.12502 0.985936
thorax -13.458 3.0409 -2.55586
lowerneck -11.0256 -12.412 -7.0259
upperneck 7.11742 -16.4094 7.56456
head 5.11619 -7.81934 2.03743
rclavicle -5.27047e-014 2.3792e-015
rhumerus 44.8344 -8.8048 -65.1548
rradius 44.6533
rwrist 39.6011
rhand -26.0585 -49.1921
rfingers 7.12502
rthumb 0.489238 -79.1713
lclavicle -5.27047e-014 2.3792e-015
lhumerus -44.2039 -17.378 96.4731
lradius 62.8046
lwrist 10.0451
lhand -14.6186 -12.2006
lfingers 7.12502
lthumb 11.5326 17.4621
rfemur -0.552203 30.8903 22.2287
rtibia -2.10704
rfoot -29.2061 -43.4511
rtoes 20.755
lfemur -5.12584 -50.3937 -8.05087
ltibia -5.06132
lfoot -7.30979 48.3212
ltoes 0.386805
490
root 0.149391 17.5906 8.24163 12.1728 14.8002 -6.91699
lowerback 4.68026 4.71979 4.49657
upperback -10.2753 7.16435 0.976232
thorax -13.4255 3.06267 -2.55817
lowerneck -10.9265 -12.5328 -7.08626
upperneck 7.09416 -16.5717 7.5893
head 5.11125 -7.90177 2.04164
rclavicle 2.97136e-014 -1.3331e-014
rhumerus 44.4583 -9.28549 -65.6597
rradius 45.4667
rwrist 39.8407
rhand -25.8453 -50.2868
rfingers 7.12502
rthumb 0.695127 -80.2655
lclavicle 2.97136e-014 -1.3331e-014
lhumerus -44.2305 -17.7444 96.5672
lradius 62.9735
lwrist 10.0958
lhand -14.5536 -12.35
lfingers 7.12502
lthumb 11.5953 17.3092
rfemur -0.510035 30.6537 22.2711
rtibia -2.04643
rfoot -28.9622 -43.3037
rtoes 20.5451
lfemur -4.9825 -50.2963 -8.15343
ltibia -5.08105
lfoot -7.25091 48.2287
ltoes 0.379288
491
root 0.149231 17.5909 8.24373 12.1579 14.7565 -6.88888
lowerback 4.71718 4.74463 4.50318
upperback -10.3019 7.20248 0.966957
thorax -13.4761 3.07713 -2.58274
lowerneck -10.6024 -12.6203 -7.19307
upperneck 6.70371 -16.6756 7.67468
head 4.96107 -7.9666 2.10204
rclavicle -5.57141e-014 -3.41226e-014
rhumerus 44.3892 -9.80386 -66.4367
rradius 46.2531
rwrist 39.4685
rhand -26.2505 -50.7595
rfingers 7.12502
rthumb 0.303763 -80.739
lclavicle -5.57141e-014 -3.41226e-014
lhumerus -44.2789 -17.974 96.653
lradius 63.1027
lwrist 9.89909
lhand -14.7634 -12.4859
lfingers 7.12502
lthumb 11.393 17.1846
rfemur -0.528693 30.4753 22.2222
rtibia -2.00811
rfoot -28.7816 -43.1419
rtoes 20.3828
lfemur -4.90115 -50.345 -8.24448
ltibia -5.0871
lfoot -7.31063 48.3239
ltoes 0.484672
492
root 0.149257 17.5911 8.24201 12.2472 14.7236 -6.85508
lowerback 4.78795 4.75892 4.55497
upperback -10.3947 7.23495 0.922873
thorax -13.6177 3.07744 -2.67628
lowerneck -10.4111 -12.5506 -7.01626
upperneck 6.59586 -16.6076 7.64858
head 4.87536 -7.93836 2.09328
rclavicle -5.08765e-015 -1.23619e-014
rhumerus 44.4587 -10.3157 -67.2223
rradius 47.0654
rwrist 39.1412
rhand -27.0679 -50.6259
rfingers 7.12502
rthumb -0.485629 -80.6051
lclavicle -5.08765e-015 -1.23619e-014
lhumerus -44.3571 -18.1007 96.6759
lradius 63.1707
lwrist 9.65907
lhand -15.0368 -12.7243
lfingers 7.12502
lthumb 11.1292 16.9606
rfemur -0.668553 30.5485 22.1048
rtibia -1.972
rfoot -28.876 -43.1127
rtoes 20.5035
lfemur -5.04278 -50.3431 -8.1752
ltibia -5.08122
lfoot -7.27196 48.3841
ltoes 0.261646
